<svg width="44" height="44" viewBox="0 0 44 44" fill="none" xmlns="http://www.w3.org/2000/svg">
<g clip-path="url(#clip0_2946_112085)">
<ellipse cx="21.45" cy="15.4002" rx="13.75" ry="2.2" fill="url(#paint0_linear_2946_112085)"/>
<rect x="6.36865" y="11.6562" width="8.72229" height="12.2366" rx="1" transform="rotate(-29.3634 6.36865 11.6562)" fill="url(#paint1_linear_2946_112085)"/>
<rect opacity="0.9" x="8.03174" y="12.3887" width="6.54171" height="7.99543" rx="0.3" transform="rotate(-29.3634 8.03174 12.3887)" fill="white"/>
<rect opacity="0.9" x="9.16992" y="10.7061" width="2.90743" height="0.363429" rx="0.181714" transform="rotate(-29.3634 9.16992 10.7061)" fill="white"/>
<circle opacity="0.9" cx="15.4976" cy="18.9879" r="0.908571" transform="rotate(-29.3634 15.4976 18.9879)" fill="white"/>
<path d="M32.8866 11.4688L35.8308 12.73C35.9383 12.5418 36.034 12.3434 36.1226 12.1366C36.5381 11.1666 36.6592 10.1416 36.526 9.15724C37.546 8.11575 37.9829 7.04811 37.6052 6.13638C37.2431 5.27607 35.5453 4.6633 33.3285 4.66509C33.1943 4.59561 33.0567 4.53048 32.9156 4.47001C30.3455 3.36913 27.4548 4.16006 25.8692 6.21504C27.104 5.55971 28.263 5.19751 29.6223 5.1545C29.4792 5.20396 28.6299 5.52582 28.4868 5.58061C24.2585 7.1965 21.6959 10.5756 22.2887 11.993C22.7393 13.0701 24.19 13.5421 26.1205 13.4676C26.7087 14.1555 27.4641 14.7248 28.3587 15.108C30.7676 16.1399 33.4529 15.5111 35.0892 13.7343L32.1223 12.4634C31.4013 13.0187 30.39 13.1736 29.4736 12.7811C28.5573 12.3886 27.9716 11.5496 27.8761 10.6446C27.8359 10.237 27.8936 9.81413 28.0651 9.41383L28.0688 9.40513L32.8866 11.4688ZM28.6742 8.00404C29.2452 6.85893 30.6536 6.35351 31.8831 6.88014C33.1125 7.40675 33.7183 8.77496 33.2834 9.97838L28.6742 8.00404ZM37.3253 6.71537C37.568 7.30417 37.2347 8.05343 36.474 8.84108C36.2492 7.67277 35.6645 6.57762 34.788 5.71981C36.112 5.73403 37.0528 6.06377 37.3253 6.71537ZM23.142 12.1378C22.83 11.3918 23.4561 10.3746 24.704 9.36048C24.6333 10.7079 25.0485 12.0423 25.8538 13.1323C24.4391 13.1463 23.4268 12.8179 23.142 12.1378Z" fill="url(#paint2_linear_2946_112085)"/>
<g filter="url(#filter0_d_2946_112085)">
<rect x="11.3274" y="3.02441" width="17.4167" height="5.225" rx="0.5" transform="rotate(-10.5636 11.3274 3.02441)" fill="url(#paint3_linear_2946_112085)"/>
<rect x="12.4448" y="9.0166" width="17.4167" height="5.225" rx="0.5" transform="rotate(-10.5636 12.4448 9.0166)" fill="url(#paint4_linear_2946_112085)"/>
<rect x="13.5625" y="15.0098" width="17.4167" height="5.225" rx="0.5" transform="rotate(-10.5636 13.5625 15.0098)" fill="url(#paint5_linear_2946_112085)"/>
<circle cx="13.9466" cy="5.19392" r="0.435417" transform="rotate(-10.5636 13.9466 5.19392)" fill="white"/>
<circle cx="15.064" cy="11.1861" r="0.435417" transform="rotate(-10.5636 15.064 11.1861)" fill="white"/>
<ellipse cx="16.1817" cy="17.1783" rx="0.435417" ry="0.435416" transform="rotate(-10.5636 16.1817 17.1783)" fill="white"/>
<rect opacity="0.8" x="26.1201" y="1.59473" width="0.435417" height="2.6125" rx="0.217709" transform="rotate(-10.5636 26.1201 1.59473)" fill="white"/>
<rect opacity="0.8" x="27.2375" y="7.58691" width="0.435417" height="2.6125" rx="0.217709" transform="rotate(-10.5636 27.2375 7.58691)" fill="white"/>
<rect opacity="0.8" x="28.3552" y="13.5791" width="0.435417" height="2.6125" rx="0.217709" transform="rotate(-10.5636 28.3552 13.5791)" fill="white"/>
<rect opacity="0.8" x="26.9763" y="1.43457" width="0.435417" height="2.6125" rx="0.217709" transform="rotate(-10.5636 26.9763 1.43457)" fill="white"/>
<rect opacity="0.8" x="28.0938" y="7.42773" width="0.435417" height="2.6125" rx="0.217709" transform="rotate(-10.5636 28.0938 7.42773)" fill="white"/>
<rect opacity="0.8" x="29.2112" y="13.4199" width="0.435417" height="2.6125" rx="0.217709" transform="rotate(-10.5636 29.2112 13.4199)" fill="white"/>
<rect x="22.3406" y="9.8291" width="8.70833" height="8.70833" rx="1" transform="rotate(-10.5636 22.3406 9.8291)" fill="url(#paint6_linear_2946_112085)"/>
<path d="M24.5975 12.4303C24.473 11.7628 24.9132 11.1208 25.5806 10.9963V10.9963C26.2481 10.8718 26.8901 11.312 27.0146 11.9795L27.24 13.1881L26.0314 13.4134C25.3639 13.5379 24.7219 13.0977 24.5975 12.4303V12.4303Z" fill="white"/>
<path d="M25.1047 15.1498C25.2292 15.8173 25.8712 16.2575 26.5387 16.133V16.133C27.2061 16.0085 27.6463 15.3665 27.5218 14.6991L27.2965 13.4905L26.0879 13.7159C25.4204 13.8403 24.9802 14.4823 25.1047 15.1498V15.1498Z" fill="white"/>
<path d="M29.7339 11.4722C29.6095 10.8048 28.9674 10.3646 28.3 10.4891V10.4891C27.6325 10.6135 27.1923 11.2555 27.3168 11.923L27.5422 13.1316L28.7507 12.9062C29.4182 12.7817 29.8584 12.1397 29.7339 11.4722V11.4722Z" fill="white"/>
<path d="M30.2409 14.1918C30.3654 14.8593 29.9252 15.5013 29.2577 15.6258V15.6258C28.5903 15.7503 27.9483 15.3101 27.8238 14.6426L27.5984 13.434L28.807 13.2086C29.4744 13.0841 30.1164 13.5243 30.2409 14.1918V14.1918Z" fill="white"/>
</g>
<ellipse cx="17.6001" cy="41.7996" rx="13.2" ry="2.2" fill="url(#paint7_linear_2946_112085)"/>
<mask id="mask0_2946_112085" style="mask-type:alpha" maskUnits="userSpaceOnUse" x="7" y="12" width="29" height="32">
<path fill-rule="evenodd" clip-rule="evenodd" d="M35.2002 12.6494H7.7002L7.97791 15.3994H7.7002L11.5502 41.7994C11.5502 43.0144 15.9826 43.9994 21.4502 43.9994C26.9178 43.9994 31.3502 43.0144 31.3502 41.7994L35.2002 15.3994H34.9225L35.2002 12.6494Z" fill="url(#paint8_linear_2946_112085)"/>
</mask>
<g mask="url(#mask0_2946_112085)">
<g filter="url(#filter1_d_2946_112085)">
<path fill-rule="evenodd" clip-rule="evenodd" d="M21.4501 17.5994C28.8251 17.5994 34.8439 16.6704 35.1849 15.5039L31.3501 41.7994H31.35C31.35 41.7995 31.35 41.7996 31.35 41.7997C31.35 43.0147 26.9176 43.9997 21.45 43.9997C15.9824 43.9997 11.55 43.0147 11.55 41.7997C11.55 41.7995 11.55 41.7992 11.55 41.799L7.71533 15.5039C8.05629 16.6704 14.0751 17.5994 21.4501 17.5994Z" fill="url(#paint9_linear_2946_112085)"/>
</g>
<path fill-rule="evenodd" clip-rule="evenodd" d="M21.4502 21.8535C21.8644 21.8535 22.2002 22.1893 22.2002 22.6035V39.5998C22.2002 40.014 21.8644 40.3498 21.4502 40.3498C21.036 40.3498 20.7002 40.014 20.7002 39.5998V22.6035C20.7002 22.1893 21.036 21.8535 21.4502 21.8535Z" fill="#9EA6B4"/>
<path fill-rule="evenodd" clip-rule="evenodd" d="M28.6727 21.8561C29.085 21.8961 29.3868 22.2628 29.3467 22.6751L27.6967 39.6713C27.6567 40.0836 27.2901 40.3854 26.8778 40.3454C26.4655 40.3053 26.1637 39.9387 26.2038 39.5264L27.8538 22.5301C27.8938 22.1178 28.2604 21.8161 28.6727 21.8561Z" fill="#9EA6B4"/>
<path fill-rule="evenodd" clip-rule="evenodd" d="M14.2276 22.3532C14.6399 22.3131 15.0066 22.6149 15.0466 23.0272L16.6966 40.0235C16.7366 40.4358 16.4348 40.8024 16.0226 40.8424C15.6103 40.8825 15.2436 40.5807 15.2036 40.1684L13.5536 23.1721C13.5136 22.7599 13.8154 22.3932 14.2276 22.3532Z" fill="#9EA6B4"/>
</g>
</g>
<defs>
<filter id="filter0_d_2946_112085" x="7.2959" y="-2.2002" width="28.3774" height="30.3779" filterUnits="userSpaceOnUse" color-interpolation-filters="sRGB">
<feFlood flood-opacity="0" result="BackgroundImageFix"/>
<feColorMatrix in="SourceAlpha" type="matrix" values="0 0 0 0 0 0 0 0 0 0 0 0 0 0 0 0 0 0 127 0" result="hardAlpha"/>
<feOffset dy="4"/>
<feGaussianBlur stdDeviation="1"/>
<feComposite in2="hardAlpha" operator="out"/>
<feColorMatrix type="matrix" values="0 0 0 0 0.340139 0 0 0 0 0.407388 0 0 0 0 0.516667 0 0 0 0.4 0"/>
<feBlend mode="normal" in2="BackgroundImageFix" result="effect1_dropShadow_2946_112085"/>
<feBlend mode="normal" in="SourceGraphic" in2="effect1_dropShadow_2946_112085" result="shape"/>
</filter>
<filter id="filter1_d_2946_112085" x="3.71533" y="11.5039" width="35.4695" height="36.4961" filterUnits="userSpaceOnUse" color-interpolation-filters="sRGB">
<feFlood flood-opacity="0" result="BackgroundImageFix"/>
<feColorMatrix in="SourceAlpha" type="matrix" values="0 0 0 0 0 0 0 0 0 0 0 0 0 0 0 0 0 0 127 0" result="hardAlpha"/>
<feOffset/>
<feGaussianBlur stdDeviation="2"/>
<feComposite in2="hardAlpha" operator="out"/>
<feColorMatrix type="matrix" values="0 0 0 0 0.561111 0 0 0 0 0.601323 0 0 0 0 0.666667 0 0 0 1 0"/>
<feBlend mode="normal" in2="BackgroundImageFix" result="effect1_dropShadow_2946_112085"/>
<feBlend mode="normal" in="SourceGraphic" in2="effect1_dropShadow_2946_112085" result="shape"/>
</filter>
<linearGradient id="paint0_linear_2946_112085" x1="7.69995" y1="15.4002" x2="35.2" y2="15.4002" gradientUnits="userSpaceOnUse">
<stop stop-color="#E7EBEF"/>
<stop offset="1" stop-color="#6F7B91"/>
</linearGradient>
<linearGradient id="paint1_linear_2946_112085" x1="15.0909" y1="11.6562" x2="-1.55835" y2="15.3078" gradientUnits="userSpaceOnUse">
<stop stop-color="#97A4BD"/>
<stop offset="1" stop-color="#B0BAC9"/>
</linearGradient>
<linearGradient id="paint2_linear_2946_112085" x1="37.7613" y1="5.99891" x2="23.3996" y2="12.7321" gradientUnits="userSpaceOnUse">
<stop stop-color="#C2CEDF"/>
<stop offset="0.605" stop-color="#B6C0D3"/>
<stop offset="1" stop-color="#929EB7"/>
</linearGradient>
<linearGradient id="paint3_linear_2946_112085" x1="28.7441" y1="3.02441" x2="11.7628" y2="20.4411" gradientUnits="userSpaceOnUse">
<stop stop-color="#E9ECF2"/>
<stop offset="1" stop-color="#ADB7C5"/>
</linearGradient>
<linearGradient id="paint4_linear_2946_112085" x1="29.4261" y1="3.35619" x2="12.4448" y2="20.3374" gradientUnits="userSpaceOnUse">
<stop stop-color="#D3D9E7"/>
<stop offset="1" stop-color="#ACB5C0"/>
</linearGradient>
<linearGradient id="paint5_linear_2946_112085" x1="30.5437" y1="2.8181" x2="19.6583" y2="20.6702" gradientUnits="userSpaceOnUse">
<stop stop-color="#C1C8D8"/>
<stop offset="1" stop-color="#AAB4C1"/>
</linearGradient>
<linearGradient id="paint6_linear_2946_112085" x1="26.6947" y1="9.8291" x2="26.6947" y2="18.5374" gradientUnits="userSpaceOnUse">
<stop stop-color="#B7C2D2"/>
<stop offset="1" stop-color="#98A1AE"/>
</linearGradient>
<linearGradient id="paint7_linear_2946_112085" x1="4.40015" y1="41.7996" x2="30.8001" y2="41.7996" gradientUnits="userSpaceOnUse">
<stop stop-color="#EFF2F7"/>
<stop offset="1" stop-color="#B0BACD"/>
</linearGradient>
<linearGradient id="paint8_linear_2946_112085" x1="9.6802" y1="31.4031" x2="38.0602" y2="31.4031" gradientUnits="userSpaceOnUse">
<stop stop-color="#B8BFC9"/>
<stop offset="1" stop-color="#E8EAEF"/>
</linearGradient>
<linearGradient id="paint9_linear_2946_112085" x1="11.2859" y1="31.4418" x2="33.1558" y2="31.4418" gradientUnits="userSpaceOnUse">
<stop stop-color="#ABB4C1"/>
<stop offset="1" stop-color="#E1E6F2"/>
</linearGradient>
<clipPath id="clip0_2946_112085">
<rect width="44" height="44" fill="white"/>
</clipPath>
</defs>
</svg>
