<svg width="48" height="48" viewBox="0 0 48 48" fill="none" xmlns="http://www.w3.org/2000/svg">
<g id="Frame 1143">
<g id="Group 2226029">
<path id="Union" fill-rule="evenodd" clip-rule="evenodd" d="M17.2612 7.80005C22.4294 7.80005 26.6652 11.7906 27.0533 16.8575C32.1293 17.6282 36 21.671 36 26.5425C36 31.9646 31.205 36.36 25.29 36.36C25.2549 36.36 25.2198 36.3599 25.1847 36.3596H9.31753C9.28674 36.3599 9.25591 36.3601 9.22505 36.3601C4.29591 36.3601 0.300049 32.3642 0.300049 27.435C0.300049 23.0973 3.39466 19.4822 7.4966 18.6773C7.45922 18.3292 7.44005 17.9756 7.44005 17.6175C7.44005 12.1955 11.8371 7.80005 17.2612 7.80005Z" fill="url(#paint0_linear_933_28276)"/>
<g id="Union_2">
<mask id="path-2-inside-1_933_28276" fill="white">
<path fill-rule="evenodd" clip-rule="evenodd" d="M27.2289 9C32.8748 9 37.5022 13.3594 37.9262 18.8947C43.4714 19.7367 47.7 24.1532 47.7 29.475C47.7 35.3983 42.4617 40.2 36 40.2C35.9976 40.2 35.9952 40.2 35.9929 40.2H18.4561C18.4541 40.2 18.452 40.2 18.45 40.2C13.0652 40.2 8.69995 35.8348 8.69995 30.45C8.69995 25.7112 12.0806 21.7621 16.5617 20.8827C16.5209 20.5024 16.5 20.1161 16.5 19.725C16.5 13.8017 21.3035 9 27.2289 9Z"/>
</mask>
<path fill-rule="evenodd" clip-rule="evenodd" d="M27.2289 9C32.8748 9 37.5022 13.3594 37.9262 18.8947C43.4714 19.7367 47.7 24.1532 47.7 29.475C47.7 35.3983 42.4617 40.2 36 40.2C35.9976 40.2 35.9952 40.2 35.9929 40.2H18.4561C18.4541 40.2 18.452 40.2 18.45 40.2C13.0652 40.2 8.69995 35.8348 8.69995 30.45C8.69995 25.7112 12.0806 21.7621 16.5617 20.8827C16.5209 20.5024 16.5 20.1161 16.5 19.725C16.5 13.8017 21.3035 9 27.2289 9Z" fill="url(#paint1_linear_933_28276)"/>
<path d="M37.9262 18.8947L37.7268 18.9099L37.7389 19.0685L37.8962 19.0924L37.9262 18.8947ZM16.5617 20.8827L16.6002 21.079L16.7802 21.0437L16.7606 20.8614L16.5617 20.8827ZM38.1256 18.8794C37.6937 13.2407 32.9801 8.8 27.2289 8.8V9.2C32.7696 9.2 37.3107 13.4782 37.7268 18.9099L38.1256 18.8794ZM47.9 29.475C47.9 24.0402 43.5846 19.5515 37.9562 18.6969L37.8962 19.0924C43.3583 19.9218 47.5 24.2661 47.5 29.475H47.9ZM36 40.4C42.5554 40.4 47.9 35.5247 47.9 29.475H47.5C47.5 35.2718 42.368 40 36 40V40.4ZM35.9929 40.4C35.994 40.4 35.9952 40.4 35.9963 40.4C35.9975 40.4 35.9987 40.4 36 40.4V40C35.9988 40 35.9977 40 35.9965 40C35.9953 40 35.9941 40 35.9929 40V40.4ZM35.9929 40H18.4561V40.4H35.9929V40ZM18.45 40.4C18.451 40.4 18.4521 40.4 18.4531 40.4C18.4542 40.4 18.4551 40.4 18.4561 40.4V40C18.455 40 18.454 40 18.4529 40C18.4519 40 18.4509 40 18.45 40V40.4ZM8.49995 30.45C8.49995 35.9452 12.9547 40.4 18.45 40.4V40C13.1756 40 8.89995 35.7243 8.89995 30.45H8.49995ZM16.5232 20.6864C11.9501 21.5839 8.49995 25.6138 8.49995 30.45H8.89995C8.89995 25.8087 12.2111 21.9403 16.6002 21.079L16.5232 20.6864ZM16.3 19.725C16.3 20.1233 16.3213 20.5167 16.3629 20.9041L16.7606 20.8614C16.7205 20.4881 16.7 20.109 16.7 19.725H16.3ZM27.2289 8.8C21.1931 8.8 16.3 13.6912 16.3 19.725H16.7C16.7 13.9123 21.4139 9.2 27.2289 9.2V8.8Z" fill="#E2F4FF" mask="url(#path-2-inside-1_933_28276)"/>
</g>
<g id="Group 2226028">
<path id="Rectangle 1692" d="M20.1001 22.8C20.1001 20.8117 21.7119 19.2 23.7001 19.2C25.6883 19.2 27.3001 20.8117 27.3001 22.8V26.4H23.7001C21.7119 26.4 20.1001 24.7882 20.1001 22.8Z" fill="white"/>
<path id="Rectangle 1694" d="M20.1001 31.2C20.1001 33.1883 21.7119 34.8 23.7001 34.8C25.6883 34.8 27.3001 33.1883 27.3001 31.2V27.6H23.7001C21.7119 27.6 20.1001 29.2118 20.1001 31.2Z" fill="white"/>
<path id="Rectangle 1693" d="M35.7002 22.8C35.7002 20.8117 34.0884 19.2 32.1002 19.2C30.112 19.2 28.5002 20.8117 28.5002 22.8V26.4H32.1002C34.0884 26.4 35.7002 24.7882 35.7002 22.8Z" fill="white"/>
<path id="Rectangle 1695" d="M35.7002 31.2C35.7002 33.1883 34.0884 34.8 32.1002 34.8C30.112 34.8 28.5002 33.1883 28.5002 31.2V27.6H32.1002C34.0884 27.6 35.7002 29.2118 35.7002 31.2Z" fill="white"/>
</g>
</g>
</g>
<defs>
<linearGradient id="paint0_linear_933_28276" x1="18.15" y1="7.80005" x2="18.15" y2="36.36" gradientUnits="userSpaceOnUse">
<stop stop-color="#0099FF"/>
<stop offset="1" stop-color="#0057FF"/>
</linearGradient>
<linearGradient id="paint1_linear_933_28276" x1="28.2" y1="9" x2="28.2" y2="40.2" gradientUnits="userSpaceOnUse">
<stop stop-color="#00C2FF"/>
<stop offset="1" stop-color="#0075FF"/>
</linearGradient>
</defs>
</svg>
