<svg width="34" height="34" viewBox="0 0 34 34" fill="none" xmlns="http://www.w3.org/2000/svg">
<g id="Frame 1144">
<g id="Group 2226029">
<g id="Union">
<mask id="path-1-outside-1_951_81458" maskUnits="userSpaceOnUse" x="0.000488281" y="5.85156" width="33" height="24" fill="black">
<rect fill="white" x="0.000488281" y="5.85156" width="33" height="24"/>
<path fill-rule="evenodd" clip-rule="evenodd" d="M18.6001 7.85156C21.6797 7.85156 24.2129 10.1162 24.5194 13.0189C28.1431 13.2845 31.0005 16.3085 31.0005 20C31.0005 23.866 27.8665 27 24.0005 27H8.00049C4.68678 27 2.00049 24.3137 2.00049 21C2.00049 18.5097 3.51764 16.3737 5.67807 15.466C5.65898 15.3022 5.64918 15.1356 5.64918 14.9669C5.64918 12.5342 7.68643 10.5622 10.1995 10.5622C11.2782 10.5622 12.2692 10.9255 13.0491 11.5326C13.9105 9.37885 16.071 7.85156 18.6001 7.85156Z"/>
</mask>
<path fill-rule="evenodd" clip-rule="evenodd" d="M18.6001 7.85156C21.6797 7.85156 24.2129 10.1162 24.5194 13.0189C28.1431 13.2845 31.0005 16.3085 31.0005 20C31.0005 23.866 27.8665 27 24.0005 27H8.00049C4.68678 27 2.00049 24.3137 2.00049 21C2.00049 18.5097 3.51764 16.3737 5.67807 15.466C5.65898 15.3022 5.64918 15.1356 5.64918 14.9669C5.64918 12.5342 7.68643 10.5622 10.1995 10.5622C11.2782 10.5622 12.2692 10.9255 13.0491 11.5326C13.9105 9.37885 16.071 7.85156 18.6001 7.85156Z" fill="url(#paint0_linear_951_81458)"/>
<path d="M24.5194 13.0189L22.5305 13.2289L22.706 14.8914L24.3733 15.0136L24.5194 13.0189ZM5.67807 15.466L6.4528 17.3099L7.8386 16.7276L7.66463 15.2345L5.67807 15.466ZM13.0491 11.5326L11.8205 13.1108L13.9186 14.7441L14.906 12.2753L13.0491 11.5326ZM26.5084 12.8089C26.0901 8.84761 22.6613 5.85156 18.6001 5.85156V9.85156C20.6982 9.85156 22.3358 11.3848 22.5305 13.2289L26.5084 12.8089ZM33.0005 20C33.0005 15.253 29.3266 11.3658 24.6656 11.0243L24.3733 15.0136C26.9596 15.2031 29.0005 17.3641 29.0005 20H33.0005ZM24.0005 29C28.9711 29 33.0005 24.9706 33.0005 20H29.0005C29.0005 22.7614 26.7619 25 24.0005 25V29ZM24.0005 25H8.00049V29H24.0005V25ZM0.000488281 21C0.000488281 25.4183 3.58221 29 8.00049 29V25C5.79135 25 4.00049 23.2091 4.00049 21H0.000488281ZM4.90335 13.6222C2.0267 14.8308 0.000488281 17.6765 0.000488281 21H4.00049C4.00049 19.3429 5.00857 17.9167 6.4528 17.3099L4.90335 13.6222ZM3.64918 14.9669C3.64918 15.2132 3.66349 15.457 3.69151 15.6975L7.66463 15.2345C7.65447 15.1473 7.64918 15.0581 7.64918 14.9669H3.64918ZM10.1995 8.56215C6.64367 8.56215 3.64918 11.3688 3.64918 14.9669H7.64918C7.64918 13.6996 8.72918 12.5622 10.1995 12.5622V8.56215ZM14.2776 9.95443C13.1544 9.08003 11.7331 8.56215 10.1995 8.56215V12.5622C10.8233 12.5622 11.3839 12.7709 11.8205 13.1108L14.2776 9.95443ZM18.6001 5.85156C15.2569 5.85156 12.3586 7.87336 11.1921 10.7899L14.906 12.2753C15.4624 10.8843 16.8852 9.85156 18.6001 9.85156V5.85156Z" fill="url(#paint1_linear_951_81458)" mask="url(#path-1-outside-1_951_81458)"/>
</g>
</g>
<g id="Group 2226028">
<path id="Rectangle 1692" d="M11.9492 16.3059C11.9492 15.1831 12.8594 14.2729 13.9822 14.2729H14.0494C15.2093 14.2729 16.1495 15.2132 16.1495 16.3731V18.3388H13.9822C12.8594 18.3388 11.9492 17.4287 11.9492 16.3059Z" fill="white"/>
<path id="Rectangle 1694" d="M11.9492 21.0493C11.9492 22.1721 12.8594 23.0823 13.9822 23.0823H14.0494C15.2093 23.0823 16.1495 22.142 16.1495 20.9821V19.0164H13.9822C12.8594 19.0164 11.9492 19.9266 11.9492 21.0493Z" fill="white"/>
<path id="Rectangle 1693" d="M21.0498 16.3059C21.0498 15.1831 20.1396 14.2729 19.0169 14.2729H18.9497C17.7898 14.2729 16.8495 15.2132 16.8495 16.3731V18.3388H19.0169C20.1396 18.3388 21.0498 17.4287 21.0498 16.3059Z" fill="white"/>
<path id="Rectangle 1695" d="M21.0498 21.0493C21.0498 22.1721 20.1396 23.0823 19.0169 23.0823H18.9497C17.7898 23.0823 16.8495 22.142 16.8495 20.9821V19.0164H19.0169C20.1396 19.0164 21.0498 19.9266 21.0498 21.0493Z" fill="white"/>
</g>
</g>
<defs>
<linearGradient id="paint0_linear_951_81458" x1="14.4558" y1="8.18608" x2="14.4558" y2="26.6157" gradientUnits="userSpaceOnUse">
<stop stop-color="#0099FF"/>
<stop offset="1" stop-color="#0057FF"/>
</linearGradient>
<linearGradient id="paint1_linear_951_81458" x1="16.332" y1="7.85156" x2="16.332" y2="26.148" gradientUnits="userSpaceOnUse">
<stop stop-color="#E8F3FF"/>
<stop offset="1" stop-color="#E8F3FF"/>
</linearGradient>
</defs>
</svg>
