<svg width="14" height="14" viewBox="0 0 14 14" fill="none" xmlns="http://www.w3.org/2000/svg">
<g id="jump">
<g id="jump_2">
<path d="M1.29329 12.7067C1.48075 12.8942 1.73489 12.9996 2 13H12C12.2651 12.9996 12.5193 12.8942 12.7067 12.7067C12.8942 12.5193 12.9996 12.2651 13 12V7.5H12V12H2V2H6.5V1H2C1.73489 1.00036 1.48075 1.10583 1.29329 1.29329C1.10583 1.48075 1.00036 1.73489 1 2V12C1.00036 12.2651 1.10583 12.5193 1.29329 12.7067Z" fill="white"/>
<path d="M8 2V1H12.5C12.7761 1 13 1.22386 13 1.5V6H12V2.707L7.707 7L7 6.293L11.293 2H8Z" fill="white"/>
</g>
</g>
</svg>
