<svg width="120" height="120" viewBox="0 0 120 120" fill="none" xmlns="http://www.w3.org/2000/svg">
<path d="M23.2026 1.23779L110.201 11.2477C110.201 11.2477 104.326 47.8564 102.915 60.1222C101.504 72.388 98.9112 109.374 98.9112 109.374L11.9123 99.3644C11.9123 99.3644 16.9917 69.6743 19.199 50.49C21.4063 31.3056 23.2026 1.23779 23.2026 1.23779Z" fill="url(#paint0_linear_1629_104512)"/>
<g filter="url(#filter0_d_1629_104512)">
<path d="M19 8H105C105 8 103.377 44.75 103.377 57C103.377 69.25 105 106 105 106H19C19 106 20.6226 76.1596 20.6226 57C20.6226 37.8404 19 8 19 8Z" fill="url(#paint1_linear_1629_104512)"/>
</g>
<rect x="24" y="21" width="34" height="34" fill="#DFE7FC"/>
<rect x="96" y="21" width="6" height="34" transform="rotate(90 96 21)" fill="#C2D1EC"/>
<rect x="96" y="31" width="6" height="34" transform="rotate(90 96 31)" fill="#C2D1EC"/>
<rect x="96" y="41" width="6" height="34" transform="rotate(90 96 41)" fill="#C2D1EC"/>
<rect x="84" y="51" width="6" height="22" transform="rotate(90 84 51)" fill="#C2D1EC"/>
<path d="M50.4286 32.3429L49.1714 32.9715C49.93 34.3284 50.3489 35.8489 50.3921 37.4029C50.1954 37.3822 49.9978 37.3718 49.8 37.3715C49.3675 37.3728 48.9367 37.4239 48.5158 37.5236C48.4535 36.4945 48.1804 35.4892 47.7134 34.5701C47.2464 33.6511 46.5955 32.8377 45.801 32.1807C47.3298 31.8145 48.9293 31.8705 50.4286 32.3429ZM42.2572 48.6857V47.4286C41.839 47.4676 41.4182 47.4676 41 47.4286C39.5169 47.4283 38.055 47.076 36.7345 46.4009C37.1143 45.8948 37.4061 45.3282 37.5976 44.7251C38.6512 45.2627 39.8172 45.5429 41 45.5429C42.1828 45.5429 43.3488 45.2627 44.4025 44.7251C43.9531 46.1729 43.2243 47.5184 42.2572 48.6857ZM30.9429 34.8572H32.1403C32.7706 33.0615 33.9306 31.4993 35.4673 30.3767C35.604 31.0166 35.8516 31.6275 36.199 32.182C35.4045 32.839 34.7536 33.6523 34.2866 34.5714C33.8196 35.4905 33.5465 36.4958 33.4842 37.5248C32.504 36.7726 31.6467 35.8727 30.9429 34.8572Z" fill="#AFC5EC"/>
<circle cx="41" cy="30" r="4" fill="url(#paint2_linear_1629_104512)"/>
<circle cx="33" cy="42" r="4" fill="url(#paint3_linear_1629_104512)"/>
<circle cx="49" cy="42" r="4" fill="url(#paint4_linear_1629_104512)"/>
<g filter="url(#filter1_d_1629_104512)">
<rect x="33" y="70" width="82" height="19" rx="1" fill="#A5B1CB"/>
</g>
<path d="M102.608 75.576C102.632 75.252 102.776 74.916 103.016 74.688C103.124 74.568 103.256 74.472 103.412 74.412C103.568 74.34 103.736 74.304 103.904 74.304H108.224C108.572 74.304 108.884 74.448 109.124 74.688C109.244 74.796 109.328 74.928 109.4 75.084C109.46 75.24 109.508 75.408 109.508 75.588V76.392C109.508 77.088 108.92 77.664 108.224 77.664H103.376H103.364L103.124 84.672C103.112 84.9 102.944 85.068 102.728 85.068H102.704C102.476 85.056 102.32 84.864 102.32 84.648L102.608 75.576ZM109.112 79.176C109.316 79.176 109.508 79.356 109.508 79.572V79.584C109.508 79.812 109.316 79.98 109.112 79.98H107.12V81.216H108.224C108.512 81.216 108.764 81.312 108.98 81.528C109.196 81.744 109.292 81.984 109.292 82.284V84C109.292 84.288 109.196 84.54 108.98 84.744C108.764 84.948 108.512 85.068 108.224 85.068H105.188C104.9 85.068 104.648 84.948 104.432 84.744C104.216 84.54 104.12 84.288 104.12 84V82.284C104.12 81.984 104.216 81.744 104.432 81.528C104.648 81.312 104.9 81.216 105.188 81.216H106.304V79.98H104.3C104.096 79.98 103.916 79.812 103.916 79.584V79.572C103.916 79.356 104.096 79.176 104.3 79.176H106.304V78.312C106.304 78.096 106.484 77.916 106.7 77.916H106.724C106.94 77.916 107.12 78.096 107.12 78.312V79.176H109.112ZM99.188 76.572C98.96 76.572 98.792 76.404 98.792 76.176V76.164C98.792 75.948 98.96 75.768 99.188 75.768H100.256V74.592C100.256 74.376 100.436 74.196 100.652 74.196H100.676C100.892 74.196 101.072 74.376 101.072 74.592V75.768H101.588C101.804 75.768 101.984 75.948 101.984 76.164V76.176C101.984 76.404 101.804 76.572 101.588 76.572H101.072V79.86L101.684 79.512C101.876 79.404 102.116 79.476 102.224 79.668L102.236 79.68C102.332 79.86 102.272 80.1 102.08 80.22L101.072 80.796V83.544C101.072 84.156 100.724 84.672 100.172 84.936C99.992 85.008 99.8 85.044 99.596 85.044H99.38C99.164 85.044 98.984 84.864 98.984 84.648V84.636C98.984 84.408 99.164 84.24 99.38 84.24H99.596C99.788 84.24 99.944 84.168 100.076 84.036C100.196 83.904 100.256 83.748 100.256 83.544V81.264L99.344 81.78C99.152 81.888 98.912 81.816 98.792 81.624V81.612C98.684 81.42 98.756 81.18 98.936 81.072L100.256 80.328V76.572H99.188ZM108.224 76.848C108.488 76.848 108.692 76.668 108.692 76.392V75.588C108.692 75.456 108.644 75.348 108.56 75.252C108.476 75.156 108.356 75.12 108.224 75.12H103.904C103.772 75.12 103.652 75.156 103.568 75.252C103.484 75.348 103.436 75.456 103.436 75.588L103.388 76.848H108.224ZM108.476 82.284C108.476 82.14 108.356 82.032 108.224 82.032H105.188C105.044 82.032 104.948 82.14 104.948 82.284V84C104.948 84.144 105.044 84.252 105.188 84.252H108.224C108.356 84.252 108.476 84.144 108.476 84V82.284Z" fill="white"/>
<path d="M93.6319 75.4319H96.8959C97.1239 75.4319 97.2919 75.6119 97.2919 75.8279V75.8399C97.2919 76.0559 97.1239 76.2359 96.8959 76.2359H96.8479V76.3079C96.6439 77.3399 96.4279 78.2639 96.1759 79.0919C95.9599 79.8359 95.7079 80.5199 95.4439 81.1319L97.2319 84.3479C97.3279 84.5399 97.2559 84.7679 97.0759 84.8759C96.9799 84.9359 96.8719 84.9479 96.7639 84.9239C96.6559 84.8879 96.5839 84.8279 96.5239 84.7319L95.0359 82.0319C94.7479 82.5959 94.4479 83.0999 94.1479 83.5559C93.8479 83.9999 93.5239 84.4199 93.1999 84.7919C93.1159 84.8759 93.0319 84.9239 92.9239 84.9359C92.8039 84.9359 92.6959 84.8999 92.6239 84.8159C92.4679 84.6719 92.4439 84.4199 92.5879 84.2759C92.9119 83.9039 93.1999 83.5079 93.4999 83.0879C93.8599 82.5479 94.2199 81.9359 94.5319 81.2279C94.5439 81.2159 94.5439 81.1919 94.5559 81.1679L92.8999 78.1559C92.7919 77.9759 92.8519 77.7479 93.0439 77.6279L93.0679 77.6159C93.2479 77.5079 93.4879 77.5799 93.5959 77.7719L94.9519 80.2319C95.1199 79.7879 95.2759 79.3199 95.4199 78.8279C95.6479 78.0599 95.8639 77.1959 96.0439 76.2359H93.1039C92.9839 76.2359 92.8879 76.1879 92.8039 76.1039C92.7319 76.0079 92.6959 75.9119 92.7199 75.7799L92.8999 74.6399C92.9359 74.4239 93.1279 74.2799 93.3439 74.3159L93.3799 74.3279C93.5959 74.3519 93.7399 74.5559 93.7159 74.7599L93.6319 75.4319ZM91.8199 80.6759C92.0359 80.6759 92.2159 80.8679 92.2159 81.0719V81.0959C92.2159 81.3119 92.0359 81.4919 91.8199 81.4919H91.5799C91.5799 81.5159 91.5679 81.5399 91.5679 81.5639C91.4719 81.9599 91.3279 82.3319 91.1239 82.6559C90.8959 83.0399 90.5959 83.3759 90.2359 83.6639L91.5799 84.2159C91.7719 84.2999 91.8679 84.5399 91.7839 84.7319C91.7479 84.8399 91.6759 84.9119 91.5679 84.9479C91.4719 84.9959 91.3639 84.9959 91.2679 84.9479L89.4439 84.1919C89.1799 84.3359 88.8919 84.4679 88.5919 84.5879C88.1239 84.7559 87.6439 84.8999 87.1159 85.0079C86.8999 85.0559 86.6839 84.9119 86.6479 84.6839C86.6119 84.4679 86.7439 84.2759 86.9479 84.2279C87.4519 84.1079 87.9559 83.9759 88.4239 83.7839L88.2319 83.6999C87.9559 83.5919 87.7279 83.4119 87.5959 83.2079C87.4639 82.9799 87.4039 82.7399 87.4039 82.4639C87.4039 82.3439 87.4159 82.2359 87.4399 82.1159C87.4519 82.0079 87.4879 81.8999 87.5239 81.7799L87.6199 81.4919H86.9839C86.7679 81.4919 86.5879 81.3119 86.5879 81.0959V81.0719C86.5879 80.8679 86.7679 80.6759 86.9839 80.6759H87.9199L88.0999 80.1959C88.1719 79.9799 88.3879 79.8719 88.6039 79.9559H88.6159C88.8319 80.0279 88.9399 80.2559 88.8679 80.4719L88.7959 80.6759H91.8199ZM91.6999 76.5239C91.9159 76.5239 92.0959 76.7039 92.0959 76.9199V76.9439C92.0959 77.1599 91.9159 77.3399 91.6999 77.3399H89.7439V79.4999C89.7439 79.7159 89.5639 79.8959 89.3479 79.8959H89.3239C89.1079 79.8959 88.9279 79.7159 88.9279 79.4999V77.3399H86.9839C86.7679 77.3399 86.5879 77.1599 86.5879 76.9439V76.9199C86.5879 76.7039 86.7679 76.5239 86.9839 76.5239H88.9279V74.6279C88.9279 74.4239 89.1079 74.2319 89.3239 74.2319H89.3479C89.5639 74.2319 89.7439 74.4239 89.7439 74.6279V76.5239H91.6999ZM88.2919 82.0439C88.2559 82.1159 88.2319 82.1999 88.2319 82.2599C88.2199 82.3319 88.2079 82.4039 88.2079 82.4639C88.2079 82.7039 88.3279 82.8599 88.5559 82.9559L89.3599 83.2919C89.4079 83.2679 89.4439 83.2319 89.4919 83.1959C89.8519 82.9319 90.1519 82.6199 90.3799 82.2599C90.5359 82.0319 90.6439 81.7679 90.7279 81.4919H88.4959L88.2919 82.0439ZM87.3079 77.7839C87.3799 77.5799 87.5959 77.4719 87.8119 77.5319L87.8359 77.5439C88.0399 77.6159 88.1479 77.8439 88.0879 78.0359L87.6199 79.4159C87.5479 79.6199 87.3199 79.7279 87.1159 79.6679L87.0919 79.6559C86.8879 79.5839 86.7799 79.3559 86.8399 79.1519L87.3079 77.7839ZM90.6079 78.0359C90.5359 77.8319 90.6439 77.6159 90.8479 77.5439L90.8599 77.5319C91.0759 77.4719 91.3039 77.5799 91.3639 77.7839L91.8319 79.1519C91.8919 79.3559 91.7839 79.5839 91.5919 79.6559H91.5679C91.3639 79.7279 91.1359 79.6199 91.0759 79.4159L90.6079 78.0359ZM88.0399 75.6959C88.1239 75.8999 88.0279 76.1279 87.8359 76.2119L87.8119 76.2239C87.6079 76.3079 87.3799 76.2119 87.2959 76.0079L86.8879 75.0479C86.7919 74.8439 86.8999 74.6039 87.0919 74.5319L87.1159 74.5199C87.3079 74.4359 87.5479 74.5319 87.6319 74.7359L88.0399 75.6959ZM91.3879 76.0079C91.3159 76.1999 91.0879 76.3079 90.8719 76.2239L90.8599 76.2119C90.6559 76.1279 90.5599 75.8999 90.6439 75.6959L91.0519 74.7359C91.1359 74.5319 91.3639 74.4479 91.5679 74.5199L91.5799 74.5319C91.7839 74.6039 91.8799 74.8439 91.7959 75.0479L91.3879 76.0079Z" fill="white"/>
<path d="M76.196 81.7681H76.172L76.04 84.6721C76.04 84.7801 75.992 84.8881 75.92 84.9481C75.824 85.0321 75.728 85.0561 75.62 85.0561L75.608 85.0441C75.392 85.0321 75.224 84.8521 75.236 84.6361L75.656 75.8641C75.668 75.6721 75.704 75.4801 75.8 75.3001C75.956 74.9521 76.208 74.6881 76.58 74.5201C76.748 74.4361 76.952 74.4001 77.156 74.4001H83.384C83.588 74.4001 83.78 74.4361 83.96 74.5201C84.32 74.6761 84.596 74.9521 84.764 75.3121C84.836 75.4921 84.884 75.6961 84.884 75.9001V83.5321C84.884 83.7361 84.836 83.9281 84.764 84.1081C84.596 84.4801 84.32 84.7561 83.96 84.9121C83.78 84.9961 83.588 85.0321 83.384 85.0321H83.036C82.82 85.0321 82.64 84.8521 82.64 84.6361V84.6241C82.64 84.3961 82.82 84.2281 83.036 84.2281H83.384C83.564 84.2281 83.732 84.1561 83.876 84.0121C84.008 83.8801 84.068 83.7241 84.068 83.5321V81.7681H80.492V84.5401C80.492 84.7681 80.312 84.9361 80.096 84.9361H80.072C79.856 84.9361 79.676 84.7681 79.676 84.5401V81.7681H76.196ZM84.068 75.9001C84.068 75.7081 84.008 75.5401 83.876 75.4081C83.732 75.2761 83.564 75.2161 83.384 75.2161H80.492V77.7361H84.068V75.9001ZM80.492 80.9641H84.068V78.5521H80.492V80.9641ZM76.208 80.9641H79.676V78.5521H76.328L76.208 80.9641ZM76.676 75.4201C76.544 75.5521 76.472 75.7321 76.46 75.9241L76.376 77.7361H79.676V75.2161H77.156C76.964 75.2161 76.808 75.2761 76.676 75.4201Z" fill="white"/>
<path d="M66.4882 75.828C66.4882 75.624 66.5242 75.432 66.5962 75.252C66.8362 74.7 67.3762 74.34 67.9882 74.34H71.8882C72.2842 74.34 72.6682 74.508 72.9442 74.784C73.0762 74.916 73.1842 75.072 73.2562 75.264C73.3402 75.444 73.3762 75.636 73.3762 75.852V83.664C73.3762 83.868 73.3402 84.072 73.2562 84.24C73.0882 84.612 72.8242 84.888 72.4522 85.032C72.2842 85.116 72.0802 85.152 71.8882 85.152H71.8522C71.6362 85.152 71.4562 84.972 71.4562 84.756V84.744C71.4562 84.516 71.6362 84.348 71.8522 84.348H71.8882C72.0682 84.348 72.2242 84.276 72.3682 84.144C72.5002 84 72.5602 83.844 72.5602 83.664V75.852C72.5602 75.648 72.5002 75.48 72.3682 75.348C72.2242 75.216 72.0682 75.156 71.8882 75.156H67.9882C67.7842 75.156 67.6162 75.216 67.4962 75.36C67.3642 75.492 67.3042 75.66 67.2922 75.864L67.1482 84.696C67.1362 84.912 66.9562 85.092 66.7402 85.08H66.7162C66.5002 85.068 66.3322 84.888 66.3322 84.684L66.4882 75.828ZM69.1282 83.976C68.9482 83.976 68.7802 83.952 68.6362 83.88C68.1442 83.676 67.8562 83.244 67.8562 82.716V81.432C67.8562 81.252 67.8802 81.096 67.9522 80.94C68.1562 80.448 68.6002 80.148 69.1282 80.148H70.7362C71.0962 80.148 71.4082 80.28 71.6482 80.52C71.9002 80.76 72.0322 81.084 72.0322 81.432V82.716C72.0322 83.256 71.7202 83.676 71.2402 83.88C71.0842 83.952 70.9162 83.976 70.7362 83.976H69.1282ZM71.6962 76.68C71.9122 76.68 72.0922 76.872 72.0922 77.076V77.1C72.0922 77.316 71.9122 77.496 71.6962 77.496H70.3402V78.672H71.5282C71.7442 78.672 71.9242 78.864 71.9242 79.068V79.092C71.9242 79.308 71.7442 79.488 71.5282 79.488H68.3602C68.1322 79.488 67.9642 79.308 67.9642 79.092V79.068C67.9642 78.864 68.1322 78.672 68.3602 78.672H69.5362V77.496H68.1802C67.9642 77.496 67.7842 77.316 67.7842 77.1V77.076C67.7842 76.872 67.9642 76.68 68.1802 76.68H69.5362V76.188C69.5362 75.972 69.7042 75.792 69.9322 75.792H69.9442C70.1602 75.792 70.3402 75.972 70.3402 76.188V76.68H71.6962ZM63.5482 77.304C64.0642 77.304 64.5202 77.616 64.7242 78.084C64.7962 78.228 64.8322 78.396 64.8322 78.576V83.82C64.8322 83.964 64.8682 84.072 64.9642 84.156C65.0602 84.24 65.1682 84.3 65.2882 84.3H65.5762C65.7922 84.3 65.9722 84.48 65.9722 84.696V84.708C65.9722 84.924 65.7922 85.104 65.5762 85.104H65.2882C64.7482 85.104 64.3282 84.792 64.1242 84.312C64.0522 84.156 64.0162 83.988 64.0162 83.82V78.576C64.0162 78.444 63.9682 78.336 63.8842 78.24C63.8002 78.156 63.6802 78.108 63.5482 78.108H63.1162C62.8882 78.108 62.7202 77.94 62.7202 77.712V77.7C62.7202 77.484 62.8882 77.304 63.1162 77.304H63.5482ZM70.7362 83.184C70.8802 83.184 70.9882 83.136 71.0842 83.052C71.1682 82.956 71.2282 82.848 71.2282 82.716V81.432C71.2282 81.288 71.1682 81.18 71.0842 81.096C70.9882 80.988 70.8802 80.952 70.7362 80.952H69.1282C68.9962 80.952 68.9002 80.988 68.7922 81.096C68.7082 81.18 68.6602 81.288 68.6602 81.432V82.716C68.6602 82.848 68.7082 82.956 68.7922 83.052C68.9002 83.136 68.9962 83.184 69.1282 83.184H70.7362ZM64.6402 76.032C64.6402 76.248 64.4482 76.428 64.2442 76.428H64.2202C64.0042 76.428 63.8242 76.248 63.8242 76.032V74.688C63.8242 74.46 64.0042 74.292 64.2202 74.292H64.2442C64.4482 74.292 64.6402 74.46 64.6402 74.688V76.032Z" fill="white"/>
<path d="M60.2479 74.52C60.4639 74.52 60.6439 74.7 60.6439 74.916V74.94C60.6439 75.144 60.4639 75.336 60.2479 75.336H56.3839V75.348C56.3119 76.392 56.1679 77.328 55.9759 78.168H60.7039C60.9199 78.168 61.0879 78.36 61.0879 78.564V78.588C61.0879 78.804 60.9199 78.984 60.7039 78.984H57.4999V83.544C57.4999 83.736 57.5599 83.904 57.6919 84.036C57.8239 84.168 57.9919 84.24 58.1959 84.24H61.0039C61.2199 84.24 61.3999 84.42 61.3999 84.636V84.648C61.3999 84.864 61.2199 85.044 61.0039 85.044H58.1959C57.9799 85.044 57.7879 85.008 57.5959 84.936C57.2359 84.768 56.9599 84.492 56.8039 84.132C56.7319 83.94 56.6839 83.76 56.6839 83.544V78.984H55.7599C55.5199 79.824 55.2079 80.568 54.8239 81.24C54.3919 82.032 53.8519 82.728 53.2159 83.364C52.6759 83.892 52.0639 84.396 51.4039 84.864C51.2959 84.924 51.1999 84.948 51.0919 84.936C50.9839 84.912 50.8879 84.84 50.8399 84.756L50.8279 84.732C50.7079 84.564 50.7559 84.324 50.9239 84.192C51.5479 83.772 52.1239 83.292 52.6159 82.8C53.2039 82.224 53.7079 81.564 54.1279 80.82C54.4399 80.268 54.6919 79.656 54.9079 78.984H51.4039C51.1879 78.984 51.0079 78.804 51.0079 78.588V78.564C51.0079 78.36 51.1879 78.168 51.4039 78.168H55.1359C55.3399 77.34 55.4839 76.404 55.5679 75.336H51.8599C51.6439 75.336 51.4639 75.144 51.4639 74.94V74.916C51.4639 74.7 51.6439 74.52 51.8599 74.52H60.2479Z" fill="white"/>
<path d="M40.5561 85.116C39.8601 85.116 39.2721 84.54 39.2721 83.832V81.912C39.2721 81.732 39.3081 81.576 39.3801 81.42C39.5841 80.94 40.0281 80.628 40.5561 80.628H47.5521C47.8881 80.628 48.2121 80.772 48.4521 81.012C48.6921 81.252 48.8361 81.576 48.8361 81.912V83.832C48.8361 84.36 48.5241 84.804 48.0441 85.008C47.8881 85.08 47.7321 85.116 47.5521 85.116H40.5561ZM39.2481 77.712C39.1281 77.712 39.0081 77.652 38.9361 77.544C38.8521 77.436 38.8401 77.316 38.8761 77.196L39.2961 75.852H38.9841C38.7801 75.852 38.6001 75.684 38.6001 75.456V75.444C38.6001 75.216 38.7801 75.048 38.9841 75.048H39.5481L39.6921 74.604C39.7641 74.388 39.9801 74.268 40.1841 74.34H40.1961C40.4121 74.4 40.5321 74.628 40.4601 74.832L40.3881 75.048H43.5201C43.7241 75.048 43.9161 75.216 43.9161 75.444V75.456C43.9161 75.684 43.7241 75.852 43.5201 75.852H40.1361L39.8121 76.896H41.1681V76.392C41.1681 76.176 41.3481 75.996 41.5641 75.996H41.5881C41.8041 75.996 41.9841 76.176 41.9841 76.392V76.896H43.5081C43.7121 76.896 43.9041 77.076 43.9041 77.292V77.316C43.9041 77.532 43.7121 77.712 43.5081 77.712H41.9841V78.504H43.5201C43.7241 78.504 43.9161 78.684 43.9161 78.9V78.924C43.9161 79.14 43.7241 79.32 43.5201 79.32H41.9841V79.8C41.9841 80.016 41.8041 80.196 41.5881 80.196H41.5641C41.3481 80.196 41.1681 80.016 41.1681 79.8V79.32H38.9841C38.7801 79.32 38.6001 79.14 38.6001 78.924V78.9C38.6001 78.684 38.7801 78.504 38.9841 78.504H41.1681V77.712H39.2481ZM46.0641 75.18C45.8721 75.18 45.7161 75.252 45.5841 75.384C45.4521 75.528 45.3921 75.684 45.3801 75.876L45.3561 76.5H49.0521C49.2681 76.5 49.4481 76.68 49.4481 76.896V76.92C49.4481 77.136 49.2681 77.316 49.0521 77.316H48.6441V79.992C48.6441 80.208 48.4521 80.388 48.2481 80.388H48.2241C48.0081 80.388 47.8281 80.208 47.8281 79.992V77.316H45.3321L45.2481 79.884C45.2361 80.112 45.0561 80.28 44.8521 80.28H44.8281C44.6121 80.28 44.4321 80.088 44.4321 79.872L44.5641 75.852C44.5641 75.648 44.6121 75.444 44.6841 75.276C44.9241 74.724 45.4521 74.376 46.0641 74.376H48.9801C49.1961 74.376 49.3761 74.556 49.3761 74.772V74.784C49.3761 75.012 49.1961 75.18 48.9801 75.18H46.0641ZM47.5521 84.312C47.6841 84.312 47.8041 84.264 47.8881 84.18C47.9841 84.084 48.0201 83.976 48.0201 83.832V83.268H40.0881V83.832C40.0881 84.108 40.2801 84.312 40.5561 84.312H47.5521ZM48.0201 81.912C48.0201 81.78 47.9841 81.66 47.8881 81.576C47.8041 81.48 47.6841 81.444 47.5521 81.444H40.5561C40.4241 81.444 40.3041 81.48 40.2201 81.576C40.1361 81.66 40.0881 81.78 40.0881 81.912V82.464H48.0201V81.912Z" fill="white"/>
<circle cx="32.1431" cy="50.8573" r="18.991" transform="rotate(45 32.1431 50.8573)" fill="#A8B7D5" fill-opacity="0.2"/>
<path d="M17.8232 60.6045L22.3947 65.1759L9.85675 77.7139C8.59438 78.9762 6.54768 78.9762 5.28532 77.7139V77.7139C4.02295 76.4515 4.02295 74.4048 5.28531 73.1424L17.8232 60.6045Z" fill="#A5B1CB"/>
<circle cx="32.1431" cy="50.8573" r="17.991" transform="rotate(45 32.1431 50.8573)" stroke="#C3CEE7" stroke-width="2"/>
<path d="M23 46.0422C24.8994 44.0868 27.3929 43.0573 29.9176 42.9619" stroke="white"/>
<ellipse cx="62" cy="115" rx="50" ry="4" fill="#E6ECF4"/>
<defs>
<filter id="filter0_d_1629_104512" x="16.5" y="6.5" width="91" height="103" filterUnits="userSpaceOnUse" color-interpolation-filters="sRGB">
<feFlood flood-opacity="0" result="BackgroundImageFix"/>
<feColorMatrix in="SourceAlpha" type="matrix" values="0 0 0 0 0 0 0 0 0 0 0 0 0 0 0 0 0 0 127 0" result="hardAlpha"/>
<feOffset dy="1"/>
<feGaussianBlur stdDeviation="1.25"/>
<feComposite in2="hardAlpha" operator="out"/>
<feColorMatrix type="matrix" values="0 0 0 0 0.775937 0 0 0 0 0.783634 0 0 0 0 0.795833 0 0 0 0.54 0"/>
<feBlend mode="normal" in2="BackgroundImageFix" result="effect1_dropShadow_1629_104512"/>
<feBlend mode="normal" in="SourceGraphic" in2="effect1_dropShadow_1629_104512" result="shape"/>
</filter>
<filter id="filter1_d_1629_104512" x="29" y="68" width="90" height="27" filterUnits="userSpaceOnUse" color-interpolation-filters="sRGB">
<feFlood flood-opacity="0" result="BackgroundImageFix"/>
<feColorMatrix in="SourceAlpha" type="matrix" values="0 0 0 0 0 0 0 0 0 0 0 0 0 0 0 0 0 0 127 0" result="hardAlpha"/>
<feOffset dy="2"/>
<feGaussianBlur stdDeviation="2"/>
<feComposite in2="hardAlpha" operator="out"/>
<feColorMatrix type="matrix" values="0 0 0 0 0.855191 0 0 0 0 0.888488 0 0 0 0 0.945833 0 0 0 1 0"/>
<feBlend mode="normal" in2="BackgroundImageFix" result="effect1_dropShadow_1629_104512"/>
<feBlend mode="normal" in="SourceGraphic" in2="effect1_dropShadow_1629_104512" result="shape"/>
</filter>
<linearGradient id="paint0_linear_1629_104512" x1="23.8592" y1="0.962343" x2="83.7961" y2="120.601" gradientUnits="userSpaceOnUse">
<stop stop-color="#E7ECF9"/>
<stop offset="1" stop-color="#C0CFED"/>
</linearGradient>
<linearGradient id="paint1_linear_1629_104512" x1="107.32" y1="5.42105" x2="9.49909" y2="95.782" gradientUnits="userSpaceOnUse">
<stop stop-color="#F3F8FF"/>
<stop offset="1" stop-color="#DFEBFE"/>
</linearGradient>
<linearGradient id="paint2_linear_1629_104512" x1="41" y1="26" x2="41" y2="34" gradientUnits="userSpaceOnUse">
<stop stop-color="#F8FBFF"/>
<stop offset="1" stop-color="#D8E6FF"/>
</linearGradient>
<linearGradient id="paint3_linear_1629_104512" x1="33" y1="38" x2="33" y2="46" gradientUnits="userSpaceOnUse">
<stop stop-color="#F8FBFF"/>
<stop offset="1" stop-color="#D8E6FF"/>
</linearGradient>
<linearGradient id="paint4_linear_1629_104512" x1="49" y1="38" x2="49" y2="46" gradientUnits="userSpaceOnUse">
<stop stop-color="#F8FBFF"/>
<stop offset="1" stop-color="#D8E6FF"/>
</linearGradient>
</defs>
</svg>
