<svg width="14" height="14" viewBox="0 0 14 14" fill="none" xmlns="http://www.w3.org/2000/svg">
<g id="Frame 742">
<g id="Group 2225429">
<rect id="Rectangle 1556" x="13" y="12" width="12" height="1" rx="0.5" transform="rotate(-180 13 12)" fill="white"/>
<rect id="Rectangle 1557" x="13" y="3" width="12" height="1" rx="0.5" transform="rotate(-180 13 3)" fill="white"/>
<rect id="Rectangle 1558" x="8" y="7.5" width="7" height="1" rx="0.5" transform="rotate(-180 8 7.5)" fill="white"/>
<path id="chevron-down" d="M9.99123 9.72171C9.81657 9.87971 9.55062 9.87971 9.37595 9.72171C9.17469 9.53965 9.17469 9.2236 9.37595 9.04154L11.3935 7.21651C11.5216 7.10061 11.5216 6.89939 11.3935 6.78349L9.37595 4.95846C9.17469 4.7764 9.17469 4.46035 9.37596 4.27829C9.55062 4.12029 9.81657 4.12029 9.99123 4.27829L12.6721 6.70336C12.8476 6.86216 12.8476 7.13784 12.6721 7.29664L9.99123 9.72171Z" fill="white"/>
</g>
</g>
</svg>
