<svg width="14" height="14" viewBox="0 0 14 14" fill="none" xmlns="http://www.w3.org/2000/svg">
<rect x="1" y="2" width="12" height="1" rx="0.5" fill="white"/>
<rect x="1" y="11" width="12" height="1" rx="0.5" fill="white"/>
<rect x="6" y="6.5" width="7" height="1" rx="0.5" fill="white"/>
<path d="M4.00877 4.27829C4.18343 4.12029 4.44938 4.12029 4.62405 4.27829C4.82531 4.46035 4.82531 4.7764 4.62405 4.95846L2.60653 6.78349C2.4784 6.89939 2.4784 7.10061 2.60653 7.21651L4.62404 9.04154C4.82531 9.2236 4.82531 9.53965 4.62404 9.72171C4.44938 9.87971 4.18343 9.87971 4.00876 9.72171L1.32792 7.29664C1.15238 7.13784 1.15238 6.86216 1.32792 6.70336L4.00877 4.27829Z" fill="white"/>
</svg>
