<svg width="14" height="14" viewBox="0 0 14 14" fill="none" xmlns="http://www.w3.org/2000/svg">
<path d="M13 7C13 3.68629 10.3137 1 7 1C3.68629 0.999998 1 3.68629 1 7C0.999998 10.3137 3.68629 13 7 13C10.3137 13 13 10.3137 13 7ZM5.12144 5.827C5.12144 4.79082 5.96369 3.94857 6.99987 3.94857C8.03606 3.94857 8.8783 4.79082 8.8783 5.827C8.8783 6.65854 8.2418 7.30213 7.60588 7.56104C7.50221 7.60418 7.42848 7.70673 7.42848 7.8315V8.515H6.57134V7.8315C6.57134 7.35178 6.86178 6.94086 7.27966 6.7684L7.28185 6.7675C7.70592 6.59522 8.02116 6.20444 8.02116 5.827C8.02116 5.2642 7.56267 4.80571 6.99987 4.80571C6.43707 4.80571 5.97858 5.2642 5.97858 5.827H5.12144ZM6.54793 9.72008C6.54793 9.4705 6.75026 9.26818 6.99984 9.26818C7.24942 9.26818 7.45174 9.4705 7.45174 9.72008C7.45174 9.96966 7.24942 10.172 6.99984 10.172C6.75026 10.172 6.54793 9.96966 6.54793 9.72008Z" fill="white"/>
</svg>
