<svg width="40" height="40" viewBox="0 0 40 40" fill="none" xmlns="http://www.w3.org/2000/svg">
<path d="M30 7.25H35V8.75H30V7.25Z" fill="#00C739"/>
<path d="M30 19.25H35V20.75H30V19.25Z" fill="#00C739"/>
<path d="M3 4C3 3.44772 3.44772 3 4 3H31C31.5523 3 32 3.44772 32 4V12C32 12.5523 31.5523 13 31 13H4C3.44772 13 3 12.5523 3 12V4Z" fill="url(#paint0_linear_2350_86567)"/>
<path fill-rule="evenodd" clip-rule="evenodd" d="M4 15C3.44772 15 3 15.4477 3 16V24C3 24.5523 3.44772 25 4 25H22.7531C24.4749 22.5792 27.303 21 30.5 21C31.0104 21 31.5114 21.0403 32 21.1178V16C32 15.4477 31.5523 15 31 15H4ZM32 23.15C31.5153 23.0516 31.0137 23 30.5 23C28.5309 23 26.7391 23.7588 25.4009 25H31C31.5523 25 32 24.5523 32 24V23.15Z" fill="url(#paint1_linear_2350_86567)"/>
<path fill-rule="evenodd" clip-rule="evenodd" d="M26.7558 37C24.5109 35.704 23 33.2785 23 30.5C23 29.2359 23.3127 28.0449 23.865 27H31C31.5523 27 32 27.4477 32 28V36C32 36.5523 31.5523 37 31 37H26.7558ZM23.5718 37C21.9769 35.3007 21 33.0144 21 30.5C21 29.264 21.236 28.0831 21.6655 27H4C3.44772 27 3 27.4477 3 28V36C3 36.5523 3.44772 37 4 37H23.5718Z" fill="url(#paint2_linear_2350_86567)"/>
<path d="M8.33317 8.33333C8.33317 8.79357 7.96007 9.16667 7.49984 9.16667C7.0396 9.16667 6.6665 8.79357 6.6665 8.33333C6.6665 7.8731 7.0396 7.5 7.49984 7.5C7.96007 7.5 8.33317 7.8731 8.33317 8.33333Z" fill="white"/>
<path d="M8.33317 19.9998C8.33317 20.4601 7.96007 20.8332 7.49984 20.8332C7.0396 20.8332 6.6665 20.4601 6.6665 19.9998C6.6665 19.5396 7.0396 19.1665 7.49984 19.1665C7.96007 19.1665 8.33317 19.5396 8.33317 19.9998Z" fill="white"/>
<path d="M8.33317 31.6666C8.33317 32.1268 7.96007 32.4999 7.49984 32.4999C7.0396 32.4999 6.6665 32.1268 6.6665 31.6666C6.6665 31.2063 7.0396 30.8333 7.49984 30.8333C7.96007 30.8333 8.33317 31.2063 8.33317 31.6666Z" fill="white"/>
<path opacity="0.8" d="M27 6.24992C27 6.0198 27.1865 5.83325 27.4167 5.83325V5.83325C27.6468 5.83325 27.8333 6.0198 27.8333 6.24992V10.4166C27.8333 10.6467 27.6468 10.8333 27.4167 10.8333V10.8333C27.1865 10.8333 27 10.6467 27 10.4166V6.24992Z" fill="white"/>
<path opacity="0.8" d="M27 29.5832C27 29.3531 27.1865 29.1665 27.4167 29.1665V29.1665C27.6468 29.1665 27.8333 29.3531 27.8333 29.5832V33.7498C27.8333 33.98 27.6468 34.1665 27.4167 34.1665V34.1665C27.1865 34.1665 27 33.98 27 33.7498V29.5832Z" fill="white"/>
<path opacity="0.8" d="M28.6667 6.24992C28.6667 6.0198 28.8533 5.83325 29.0834 5.83325V5.83325C29.3135 5.83325 29.5001 6.0198 29.5001 6.24992V10.4166C29.5001 10.6467 29.3135 10.8333 29.0834 10.8333V10.8333C28.8533 10.8333 28.6667 10.6467 28.6667 10.4166V6.24992Z" fill="white"/>
<path opacity="0.8" fill-rule="evenodd" clip-rule="evenodd" d="M27 17.9167C27 17.6865 27.1865 17.5 27.4167 17.5C27.6468 17.5 27.8333 17.6865 27.8333 17.9167V21.3794C27.5498 21.4621 27.2718 21.5577 27 21.6655V17.9167ZM29.5001 21.052V17.9167C29.5001 17.6865 29.3135 17.5 29.0834 17.5C28.8533 17.5 28.6667 17.6865 28.6667 17.9167V21.1767C28.9405 21.1232 29.2185 21.0815 29.5001 21.052Z" fill="white"/>
<path opacity="0.8" d="M28.6667 29.5832C28.6667 29.3531 28.8533 29.1665 29.0834 29.1665V29.1665C29.3135 29.1665 29.5001 29.3531 29.5001 29.5832V33.7498C29.5001 33.98 29.3135 34.1665 29.0834 34.1665V34.1665C28.8533 34.1665 28.6667 33.98 28.6667 33.7498V29.5832Z" fill="white"/>
<path d="M37 12L37 16L36 16L36 12L37 12Z" fill="#00C739"/>
<path d="M37 1L37 4L36 4L36 1L37 1Z" fill="#00C739"/>
<path fill-rule="evenodd" clip-rule="evenodd" d="M35 15C34.4477 15 34 15.4477 34 16V21.6655C35.7083 22.3429 37.1734 23.5014 38.2282 24.9738C38.6705 24.8706 39 24.4738 39 24V16C39 15.4477 38.5523 15 38 15H35ZM35.5991 25C35.12 24.5556 34.5827 24.1731 34 23.865V24C34 24.5523 34.4477 25 35 25H35.5991Z" fill="#74DC7F"/>
<path d="M34 4C34 3.44772 34.4477 3 35 3H38C38.5523 3 39 3.44772 39 4V12C39 12.5523 38.5523 13 38 13H35C34.4477 13 34 12.5523 34 12V4Z" fill="#74DC7F"/>
<path d="M23 30.5C23 26.3579 26.3579 23 30.5 23V23C34.6421 23 38 26.3579 38 30.5V30.5C38 34.6421 34.6421 38 30.5 38V38C26.3579 38 23 34.6421 23 30.5V30.5Z" fill="#00C43F"/>
<circle cx="26.5" cy="30.5" r="1.25" fill="white"/>
<circle cx="30.5" cy="30.5" r="1.25" fill="white"/>
<circle cx="34.5" cy="30.5" r="1.25" fill="white"/>
<defs>
<linearGradient id="paint0_linear_2350_86567" x1="32" y1="3" x2="-0.300508" y2="31.822" gradientUnits="userSpaceOnUse">
<stop stop-color="#00C838"/>
<stop offset="1" stop-color="#00B955"/>
</linearGradient>
<linearGradient id="paint1_linear_2350_86567" x1="31.275" y1="4.16667" x2="-0.912373" y2="32.1697" gradientUnits="userSpaceOnUse">
<stop stop-color="#00C838"/>
<stop offset="1" stop-color="#00B955"/>
</linearGradient>
<linearGradient id="paint2_linear_2350_86567" x1="31.275" y1="3.66666" x2="9.24624" y2="35.0973" gradientUnits="userSpaceOnUse">
<stop stop-color="#00C838"/>
<stop offset="1" stop-color="#00B955"/>
</linearGradient>
</defs>
</svg>
