<svg width="40" height="40" viewBox="0 0 40 40" fill="none" xmlns="http://www.w3.org/2000/svg">
<g id="&#229;&#186;&#148;&#231;&#148;&#168;&#231;&#179;&#187;&#231;&#187;&#159;">
<g id="Group 2226032">
<rect id="Rectangle 1696" x="3.33325" y="3.33325" width="33.3333" height="10" rx="1" fill="url(#paint0_linear_1005_84195)"/>
<rect id="Rectangle 1697" x="3.33325" y="15" width="33.3333" height="10" rx="1" fill="url(#paint1_linear_1005_84195)"/>
<rect id="Rectangle 1698" x="3.33325" y="26.6665" width="33.3333" height="10" rx="1" fill="url(#paint2_linear_1005_84195)"/>
<circle id="Ellipse 261" cx="7.49984" cy="8.33333" r="0.833333" fill="white"/>
<circle id="Ellipse 262" cx="7.49984" cy="19.9998" r="0.833333" fill="white"/>
<circle id="Ellipse 263" cx="7.49984" cy="31.6666" r="0.833333" fill="white"/>
<rect id="Rectangle 1699" opacity="0.8" x="31.6665" y="5.83325" width="0.833333" height="5" rx="0.416667" fill="white"/>
<rect id="Rectangle 1701" opacity="0.8" x="31.6665" y="17.5" width="0.833333" height="5" rx="0.416667" fill="white"/>
<rect id="Rectangle 1703" opacity="0.8" x="31.6665" y="29.1665" width="0.833333" height="5" rx="0.416667" fill="white"/>
<rect id="Rectangle 1700" opacity="0.8" x="33.3333" y="5.83325" width="0.833333" height="5" rx="0.416667" fill="white"/>
<rect id="Rectangle 1702" opacity="0.8" x="33.3333" y="17.5" width="0.833333" height="5" rx="0.416667" fill="white"/>
<rect id="Rectangle 1704" opacity="0.8" x="33.3333" y="29.1665" width="0.833333" height="5" rx="0.416667" fill="white"/>
<rect id="Rectangle 476" x="21.6665" y="20" width="16.6667" height="16.6667" rx="3" fill="#FF7A7A"/>
<g id="Group 2226031">
<path id="Rectangle 1692" d="M25 25.6862C25 24.3867 26.0534 23.3333 27.3529 23.3333C28.6524 23.3333 29.7059 24.3867 29.7059 25.6862V28.0391H27.3529C26.0534 28.0391 25 26.9857 25 25.6862Z" fill="white"/>
<path id="Rectangle 1694" d="M25 30.9803C25 32.2798 26.0534 33.3333 27.3529 33.3333C28.6524 33.3333 29.7059 32.2798 29.7059 30.9803V28.6274H27.3529C26.0534 28.6274 25 29.6808 25 30.9803Z" fill="white"/>
<path id="Rectangle 1693" d="M35 25.6862C35 24.3867 33.9466 23.3333 32.6471 23.3333C31.3476 23.3333 30.2941 24.3867 30.2941 25.6862V28.0391H32.6471C33.9466 28.0391 35 26.9857 35 25.6862Z" fill="white"/>
<path id="Rectangle 1695" d="M35 30.9803C35 32.2798 33.9466 33.3333 32.6471 33.3333C31.3476 33.3333 30.2941 32.2798 30.2941 30.9803V28.6274H32.6471C33.9466 28.6274 35 29.6808 35 30.9803Z" fill="white"/>
</g>
</g>
</g>
<defs>
<linearGradient id="paint0_linear_1005_84195" x1="36.6666" y1="3.33325" x2="4.16658" y2="36.6666" gradientUnits="userSpaceOnUse">
<stop stop-color="#F53F3F"/>
<stop offset="1" stop-color="#E70000"/>
</linearGradient>
<linearGradient id="paint1_linear_1005_84195" x1="35.8333" y1="4.16667" x2="3.33325" y2="36.6667" gradientUnits="userSpaceOnUse">
<stop stop-color="#F53F3F"/>
<stop offset="1" stop-color="#E70000"/>
</linearGradient>
<linearGradient id="paint2_linear_1005_84195" x1="35.8332" y1="3.33317" x2="14.9999" y2="37.4998" gradientUnits="userSpaceOnUse">
<stop stop-color="#F53F3F"/>
<stop offset="1" stop-color="#E70000"/>
</linearGradient>
</defs>
</svg>
