<svg width="40" height="40" viewBox="0 0 40 40" fill="none" xmlns="http://www.w3.org/2000/svg">
<path fill-rule="evenodd" clip-rule="evenodd" d="M21 12C21 14.6912 19.4813 17.0276 17.2543 18.1992C22.7998 19.2244 27 24.0856 27 29.9278C27 30.52 26.52 31 25.9278 31H9.22846C10.1197 26.2154 13.5374 22.3192 18.0448 20.7481C18.4232 20.6161 18.8093 20.5006 19.2023 20.4023C18.8822 20.1621 18.5808 19.8984 18.3005 19.6138C16.8779 18.1697 16 16.1873 16 14C16 11.3151 17.3227 8.93904 19.352 7.488C20.3803 8.70644 21 10.2808 21 12ZM18.6466 6.76455C16.4341 8.40425 15 11.0346 15 14C15 16.2907 15.8565 18.3816 17.2646 19.9695C12.5902 21.7762 9.08741 25.9375 8.21229 31H2.07217C1.48002 31 1 30.52 1 29.9278C1 24.0856 5.20024 19.2244 10.7457 18.1992C8.51865 17.0276 7 14.6912 7 12C7 8.13401 10.134 5 14 5C15.7832 5 17.4106 5.66675 18.6466 6.76455Z" fill="#AED5FF"/>
<path fill-rule="evenodd" clip-rule="evenodd" d="M28.7977 20.4023C30.7421 18.9429 32 16.6184 32 14C32 9.58172 28.4183 6 24 6C19.5817 6 16 9.58172 16 14C16 16.6184 17.2579 18.9429 19.2023 20.4023C13.3413 21.8682 9 27.1696 9 33.4848C9 34.3216 9.67836 35 10.5152 35H37.4848C38.3216 35 39 34.3216 39 33.4848C39 27.1696 34.6587 21.8682 28.7977 20.4023Z" fill="url(#paint0_linear_2121_61132)"/>
<defs>
<linearGradient id="paint0_linear_2121_61132" x1="24" y1="6" x2="24" y2="35" gradientUnits="userSpaceOnUse">
<stop stop-color="#0099FF"/>
<stop offset="1" stop-color="#0099FF"/>
</linearGradient>
</defs>
</svg>
