<svg width="40" height="40" viewBox="0 0 40 40" fill="none" xmlns="http://www.w3.org/2000/svg">
<g id="&#229;&#186;&#148;&#231;&#148;&#168;&#231;&#179;&#187;&#231;&#187;&#159;">
<path id="logo-ie-filled" d="M28.1514 22.3979H35.9162C35.976 21.8759 36 21.3424 36 20.7971C36 18.2388 35.2916 15.8392 34.0551 13.7727C35.334 10.4782 35.2884 7.68209 33.5763 6.01098C31.9482 4.43949 27.5799 4.6946 22.6417 6.8146C22.2765 6.78781 21.9077 6.77404 21.5354 6.77404C14.7575 6.77404 9.07065 11.2959 7.49887 17.3887C9.62506 14.7497 11.8619 12.8363 14.8501 11.4429C14.5784 11.6897 12.9931 13.2176 12.7264 13.4763C4.84646 21.1133 2.36152 31.0895 5.03528 33.6821C7.06772 35.6521 10.751 35.3194 14.9819 33.3106C16.9492 34.2819 19.1759 34.8296 21.5352 34.8296C27.8881 34.8296 33.272 30.8651 35.2223 25.3438H27.3977C26.321 27.2693 24.2153 28.58 21.7986 28.58C19.3819 28.58 17.276 27.2693 16.1993 25.3438C15.7207 24.474 15.4456 23.4766 15.4456 22.4209V22.3979H28.1514ZM15.4572 18.6979C15.6367 15.601 18.2928 13.1303 21.5352 13.1303C24.7774 13.1303 27.4335 15.6009 27.6129 18.6979H15.4572ZM33.5054 7.56829C34.6083 8.64873 34.5807 10.6365 33.6374 13.1179C32.0212 10.729 29.673 8.84665 26.9008 7.77182C29.8649 6.53964 32.2761 6.37642 33.5054 7.56829ZM7.07504 33.1904C5.66774 31.8257 6.09195 28.9613 7.90491 25.5102C9.03347 28.5804 11.2324 31.1576 14.0673 32.818C10.9282 34.1995 8.35886 34.434 7.07504 33.1904Z" fill="url(#paint0_linear_1608_96259)"/>
</g>
<defs>
<linearGradient id="paint0_linear_1608_96259" x1="33.7931" y1="5.55556" x2="8.21657" y2="34.2688" gradientUnits="userSpaceOnUse">
<stop stop-color="#FF7D00"/>
<stop offset="1" stop-color="#E67100"/>
</linearGradient>
</defs>
</svg>
